JoggingL1_filt_ID.mot
version=1
datacolumns 20
datarows 30
range 2.150000 2.440000
inDegrees=yes
endheader
time	pelvis_tilt	pelvis_list	pelvis_rotation	hip_flexion_r	hip_adduction_r	hip_rotation_r	knee_angle_r	ankle_angle_r	hip_flexion_l	hip_adduction_l	hip_rotation_l	knee_angle_l	ankle_angle_l	pelvis_tx	pelvis_ty	pelvis_tz	lumbar_bending	lumbar_rotation	lumbar_extension
2.150000	12.714177	2.010407	-177.383612	35.916912	0.059878	-2.541723	-39.925254	15.227187	30.185388	-9.108190	-4.179288	-71.213546	6.077500	-1.263939	0.922178	-0.098926	-0.000000	-0.000000	0.000000
2.160000	12.840978	2.014121	-177.377181	35.132696	0.131545	-2.662413	-40.271523	16.383184	31.779887	-9.090725	-3.970367	-71.451215	6.377326	-1.278099	0.922688	-0.099999	-0.000000	-0.000000	0.000000
2.170000	12.897438	1.893988	-177.378015	34.196611	0.109365	-2.709055	-40.446309	17.564889	33.134403	-8.933588	-3.916619	-71.164453	6.155742	-1.292106	0.923825	-0.101135	-0.000000	-0.000000	0.000000
2.180000	12.898394	1.676013	-177.382891	33.135759	0.006840	-2.678789	-40.471122	18.770118	34.253753	-8.668500	-4.044874	-70.332060	5.504682	-1.306015	0.925596	-0.102324	-0.000000	-0.000000	0.000000
2.190000	12.867699	1.411870	-177.387635	31.969554	-0.144360	-2.605550	-40.343064	19.931968	35.159985	-8.340973	-4.353202	-68.946499	4.580539	-1.319942	0.928011	-0.103512	-0.000000	-0.000000	0.000000
2.200000	12.822016	1.171315	-177.384348	30.698339	-0.296943	-2.552483	-40.041866	20.921945	35.875941	-7.999248	-4.801542	-67.011199	3.584434	-1.334039	0.931058	-0.104601	-0.000000	-0.000000	0.000000
2.210000	12.756348	1.027694	-177.358831	29.298323	-0.396128	-2.599088	-39.542444	21.577208	36.408835	-7.680799	-5.308875	-64.531236	2.711528	-1.348455	0.934683	-0.105469	-0.000000	-0.000000	0.000000
2.220000	12.642177	1.044088	-177.290094	27.730503	-0.388779	-2.828730	-38.827233	21.733456	36.745725	-7.403573	-5.766524	-61.504340	2.086672	-1.363304	0.938784	-0.105992	-0.000000	-0.000000	0.000000
2.230000	12.438163	1.268219	-177.149687	25.958689	-0.228325	-3.314902	-37.891841	21.244999	36.863899	-7.167445	-6.060966	-57.922245	1.728162	-1.378657	0.943224	-0.106062	-0.000000	-0.000000	0.000000
2.240000	12.103910	1.736341	-176.900383	23.965503	0.125213	-4.106211	-36.744282	19.996631	36.748183	-6.964853	-6.087897	-53.787468	1.563288	-1.394531	0.947839	-0.105593	-0.000000	-0.000000	0.000000
2.250000	11.611113	2.475833	-176.502029	21.762896	0.705851	-5.209816	-35.403387	17.920042	36.404995	-6.794642	-5.766970	-49.143211	1.484427	-1.410872	0.952465	-0.104520	-0.000000	-0.000000	0.000000
2.260000	10.964699	3.495393	-175.931054	19.413416	1.534543	-6.569757	-33.903735	15.023838	35.880335	-6.670461	-5.077002	-44.108912	1.410587	-1.427545	0.956939	-0.102819	-0.000000	-0.000000	0.000000
2.270000	10.243959	4.764638	-175.207838	17.072484	2.597396	-8.053164	-32.312055	11.448052	35.291896	-6.616046	-4.084299	-38.911767	1.318231	-1.444312	0.961101	-0.100543	-0.000000	-0.000000	0.000000
2.280000	9.647007	6.193348	-174.425557	15.030106	3.812820	-9.463864	-30.750164	7.528774	34.857668	-6.648852	-2.934977	-33.904164	1.235878	-1.460789	0.964768	-0.097850	-0.000000	-0.000000	0.000000
2.290000	9.515406	7.615885	-173.776953	13.724512	5.002468	-10.569683	-29.409843	3.824925	34.895510	-6.762213	-1.839520	-29.563536	1.224370	-1.476352	0.967718	-0.095032	-0.000000	-0.000000	0.000000
2.300000	10.340873	8.782295	-173.564097	13.736734	5.889110	-11.111178	-28.548153	1.081266	35.807649	-6.920720	-1.064206	-26.481888	1.357189	-1.490084	0.969673	-0.092502	-0.000000	-0.000000	0.000000
2.310000	12.822291	9.782298	-174.018752	15.595242	6.486652	-11.027299	-28.143492	-0.854679	38.210127	-7.134290	-0.606762	-24.292682	1.729991	-1.505037	0.970927	-0.089898	-0.000000	-0.000000	0.000000
2.320000	18.384984	11.329082	-175.393371	20.125478	7.364716	-10.501709	-27.731136	-3.697933	43.470754	-7.509343	-0.000168	-21.010013	2.554816	-1.532296	0.972701	-0.085278	-0.000000	-0.000000	0.000000
2.330000	-0.000000	0.000000	-0.000000	-0.000000	0.000000	-0.000000	-0.000000	-0.000000	-0.000000	-0.000000	0.000000	-0.000000	-0.000000	0.000000	0.000000	0.000000	-0.000000	-0.000000	0.000000
2.340000	-0.000000	0.000000	-0.000000	-0.000000	0.000000	-0.000000	-0.000000	-0.000000	-0.000000	-0.000000	0.000000	-0.000000	-0.000000	0.000000	0.000000	0.000000	-0.000000	-0.000000	0.000000
2.350000	-0.000000	0.000000	-0.000000	-0.000000	0.000000	-0.000000	-0.000000	-0.000000	-0.000000	-0.000000	0.000000	-0.000000	-0.000000	0.000000	0.000000	0.000000	-0.000000	-0.000000	0.000000
2.360000	-0.000000	0.000000	-0.000000	-0.000000	0.000000	-0.000000	-0.000000	-0.000000	-0.000000	-0.000000	0.000000	-0.000000	-0.000000	0.000000	0.000000	0.000000	-0.000000	-0.000000	0.000000
2.370000	-0.000000	0.000000	-0.000000	-0.000000	0.000000	-0.000000	-0.000000	-0.000000	-0.000000	-0.000000	0.000000	-0.000000	-0.000000	0.000000	0.000000	0.000000	-0.000000	-0.000000	0.000000
2.380000	-0.000000	0.000000	-0.000000	-0.000000	0.000000	-0.000000	-0.000000	-0.000000	-0.000000	-0.000000	0.000000	-0.000000	-0.000000	0.000000	0.000000	0.000000	-0.000000	-0.000000	0.000000
2.390000	-0.000000	0.000000	-0.000000	-0.000000	0.000000	-0.000000	-0.000000	-0.000000	-0.000000	-0.000000	0.000000	-0.000000	-0.000000	0.000000	0.000000	0.000000	-0.000000	-0.000000	0.000000
2.400000	-0.000000	0.000000	-0.000000	-0.000000	0.000000	-0.000000	-0.000000	-0.000000	-0.000000	-0.000000	0.000000	-0.000000	-0.000000	0.000000	0.000000	0.000000	-0.000000	-0.000000	0.000000
2.410000	-0.000000	0.000000	-0.000000	-0.000000	0.000000	-0.000000	-0.000000	-0.000000	-0.000000	-0.000000	0.000000	-0.000000	-0.000000	0.000000	0.000000	0.000000	-0.000000	-0.000000	0.000000
2.420000	-0.000000	0.000000	-0.000000	-0.000000	0.000000	-0.000000	-0.000000	-0.000000	-0.000000	-0.000000	0.000000	-0.000000	-0.000000	0.000000	0.000000	0.000000	-0.000000	-0.000000	0.000000
2.430000	-0.000000	0.000000	-0.000000	-0.000000	0.000000	-0.000000	-0.000000	-0.000000	-0.000000	-0.000000	0.000000	-0.000000	-0.000000	0.000000	0.000000	0.000000	-0.000000	-0.000000	0.000000
2.440000	-0.000000	0.000000	-0.000000	-0.000000	0.000000	-0.000000	-0.000000	-0.000000	-0.000000	-0.000000	0.000000	-0.000000	-0.000000	0.000000	0.000000	0.000000	-0.000000	-0.000000	0.000000
